<?xml version="1.0" standalone="no"?>
<svg viewBox="0 0 200 200" xmlns="http://www.w3.org/2000/svg">
  <path fill="#6886C5" d="M40.5,-68.7C52.2,-63.3,61.2,-52,65.9,-39.5C70.6,-27.1,70.8,-13.5,64.6,-3.6C58.4,6.3,45.6,12.7,38.8,21.3C32,30,31,41,25.5,49.2C20,57.5,10,63,1.3,60.7C-7.3,58.4,-14.7,48.2,-25.9,43.3C-37.1,38.3,-52.1,38.6,-62.9,32.2C-73.7,25.9,-80.1,12.9,-82.2,-1.2C-84.3,-15.4,-82.1,-30.8,-72.8,-39.5C-63.4,-48.3,-46.9,-50.4,-33.5,-54.9C-20.2,-59.4,-10.1,-66.2,2.1,-69.9C14.4,-73.6,28.7,-74.1,40.5,-68.7Z" transform="translate(100 100)" />
</svg>
